HIERARCHY
ROOT SpineBase
{
  OFFSET 0.000000 0.000000 0.000000
  CHANNELS 6 Xposition Yposition Zposition Zrotation Xrotation Yrotation
  JOINT SpineMid
  {
    OFFSET 0.000000 32.298866 0.000000
    CHANNELS 3 Zrotation Xrotation Yrotation
    JOINT SpineShoulder
    {
      OFFSET 0.096138 23.890062 -0.603134
      CHANNELS 3 Zrotation Xrotation Yrotation
      JOINT Neck
      {
        OFFSET 0.101068 7.884541 -0.512078
        CHANNELS 3 Zrotation Xrotation Yrotation
        JOINT Head
        {
          OFFSET 3.086886 13.136903 -0.395987
          CHANNELS 3 Zrotation Xrotation Yrotation
          End Site
          {
            OFFSET 0 0 0
          }
        }
      }
      JOINT ShoulderLeft
      {
        OFFSET -9.605875 -2.914267 -12.637123
        CHANNELS 3 Zrotation Xrotation Yrotation
        JOINT ElbowLeft
        {
          OFFSET -3.658825 -21.401827 -6.467079
          CHANNELS 3 Zrotation Xrotation Yrotation
          JOINT WristLeft
          {
            OFFSET 14.353564 -16.488960 -2.155603
            CHANNELS 3 Zrotation Xrotation Yrotation
            JOINT HandLeft
            {
              OFFSET 4.116673 -5.585581 3.153556
              CHANNELS 3 Zrotation Xrotation Yrotation
              JOINT HandTipLeft
              {
                OFFSET 5.596056 -5.256480 -0.556507
                CHANNELS 3 Zrotation Xrotation Yrotation
                End Site
                {
                  OFFSET 0 0 0
                }
              }
              JOINT ThumbLeft
              {
                OFFSET -4.203261 -3.392949 0.864036
                CHANNELS 3 Zrotation Xrotation Yrotation
                End Site
                {
                  OFFSET 0 0 0
                }
              }
            }
          }
        }
      }
      JOINT ShoulderRight
      {
        OFFSET 11.635103 -5.155661 9.530114
        CHANNELS 3 Zrotation Xrotation Yrotation
        JOINT ElbowRight
        {
          OFFSET 3.458730 -24.539470 -9.572293
          CHANNELS 3 Zrotation Xrotation Yrotation
          JOINT WristRight
          {
            OFFSET 2.074632 -21.232851 -1.945380
            CHANNELS 3 Zrotation Xrotation Yrotation
            JOINT HandRight
            {
              OFFSET -0.752262 -0.671616 1.300985
              CHANNELS 3 Zrotation Xrotation Yrotation
              JOINT HandTipRight
              {
                OFFSET 0.360692 -3.712899 -2.610876
                CHANNELS 3 Zrotation Xrotation Yrotation
                End Site
                {
                  OFFSET 0 0 0
                }
              }
              JOINT ThumbRight
              {
                OFFSET -3.076754 -1.161291 -0.423068
                CHANNELS 3 Zrotation Xrotation Yrotation
                End Site
                {
                  OFFSET 0 0 0
                }
              }
            }
          }
        }
      }
    }
  }
  JOINT HipLeft
  {
    OFFSET -4.206725 1.945935 -8.313280
    CHANNELS 3 Zrotation Xrotation Yrotation
    JOINT KneeLeft
    {
      OFFSET -6.675252 -25.706036 -5.439917
      CHANNELS 3 Zrotation Xrotation Yrotation
      JOINT AnkleLeft
      {
        OFFSET -6.119962 -34.067858 1.459915
        CHANNELS 3 Zrotation Xrotation Yrotation
        JOINT FootLeft
        {
          OFFSET 2.705704 -7.555315 -5.683535
          CHANNELS 3 Zrotation Xrotation Yrotation
          End Site
          {
            OFFSET 0 0 0
          }
        }
      }
    }
  }
  JOINT HipRight
  {
    OFFSET 5.420843 -0.390066 1.490172
    CHANNELS 3 Zrotation Xrotation Yrotation
    JOINT KneeRight
    {
      OFFSET -1.710248 -26.140416 7.285747
      CHANNELS 3 Zrotation Xrotation Yrotation
      JOINT AnkleRight
      {
        OFFSET -3.881082 -30.874527 6.185437
        CHANNELS 3 Zrotation Xrotation Yrotation
        JOINT FootRight
        {
          OFFSET 7.563153 -3.842393 -9.999777
          CHANNELS 3 Zrotation Xrotation Yrotation
          End Site
          {
            OFFSET 0 0 0
          }
        }
      }
    }
  }
}
MOTION
Frames: 15
Frame Time: 0.033333
-72.370784 66.080933 365.661263 -0.248132 0.245897 -39.437198 0.347839 -0.032288 39.437829 -0.000000 0.000000 0.000000 2.978748 2.039386 -0.445442 0.000000 0.000000 0.000000 -4.413993 -1.292213 1.500718 3.191908 7.332996 4.035981 1.337120 2.033739 0.737174 -8.350974 4.806929 8.476206 0.000000 0.000000 0.000000 0.000000 0.000000 0.000000 64.382701 -23.021562 -16.469383 79.131479 4.453546 -8.888998 -53.251122 -71.730102 135.702258 0.167068 -74.613373 82.102152 0.000000 0.000000 0.000000 0.000000 0.000000 0.000000 1.877651 0.520636 39.247561 -2.485099 -0.185189 0.282570 2.686031 -2.997287 -2.748761 0.000000 0.000000 0.000000 0.347839 -0.032288 39.437829 -1.056229 -1.676032 -0.016295 -0.488283 3.244069 7.081328 0.000000 0.000000 0.000000
-72.336670 66.314325 365.565688 -0.142655 0.476280 -36.229589 0.396570 -0.299877 36.231219 -0.000000 0.000000 0.000000 3.666076 1.816714 -0.377543 0.000000 0.000000 0.000000 -5.116967 -1.775139 1.766053 3.134725 9.475123 5.426275 3.574983 0.368504 0.388739 -12.250412 7.023270 10.254983 0.000000 0.000000 0.000000 0.000000 0.000000 0.000000 64.298370 -11.109967 -21.318106 78.316615 18.633154 -21.478731 57.684888 -76.571915 -113.817427 -123.198154 -76.179522 -65.555034 0.000000 0.000000 0.000000 0.000000 0.000000 0.000000 2.371393 0.477497 35.932391 -2.958520 -0.064020 0.375719 2.750535 -3.044782 -2.771154 0.000000 0.000000 0.000000 0.396570 -0.299877 36.231219 -1.125210 -1.834687 -0.012745 -1.005120 3.862843 9.502578 0.000000 0.000000 0.000000
-72.155002 66.534635 365.547533 0.132921 0.686270 -32.874931 0.260885 -0.648517 32.875611 -0.000000 0.000000 0.000000 4.336027 1.516759 -0.285741 0.000000 0.000000 0.000000 -5.545302 -1.458516 1.847326 2.744988 10.364352 6.664703 4.935308 0.085381 0.574966 -14.970006 6.625213 9.502151 0.000000 0.000000 0.000000 0.000000 0.000000 0.000000 63.398435 -1.335395 -24.532394 72.231067 34.931888 -35.805060 97.678901 -47.859848 -81.628247 -162.801519 -74.477596 -102.423311 0.000000 0.000000 0.000000 0.000000 0.000000 0.000000 2.237683 0.371116 32.465971 -3.009221 -0.262684 0.465861 2.658956 -2.786662 -2.616512 0.000000 0.000000 0.000000 -1.078954 -1.564496 32.400803 0.432365 -1.892634 0.431485 -1.642575 4.437934 12.313460 0.000000 0.000000 0.000000
-71.869058 66.710794 365.601336 0.522179 0.870080 -29.582351 -0.024607 -1.014438 29.578168 0.354775 0.873819 0.009140 4.503878 0.245194 -0.105497 0.000000 0.000000 0.000000 -6.308967 -3.118408 1.955707 2.425328 13.134975 8.454405 6.219755 0.092594 1.042589 -17.820295 5.481945 7.503737 0.000000 0.000000 0.000000 0.000000 0.000000 0.000000 61.128777 6.732475 -25.723369 61.263200 46.400924 -37.871715 97.012167 -25.914951 -82.856646 -169.908750 -76.937745 -108.655709 0.000000 0.000000 0.000000 0.000000 0.000000 0.000000 1.600494 0.288026 29.065389 -2.053146 -0.348985 0.516828 1.898027 -2.398806 -2.269362 0.000000 0.000000 0.000000 -2.247789 -2.561167 28.775215 1.461329 -1.718117 0.709576 -2.418948 4.872451 15.306832 0.000000 0.000000 0.000000
-71.528398 66.843527 365.716261 0.950192 1.014088 -26.331667 -0.186858 -0.495401 26.333604 0.137932 0.517771 0.016560 4.751784 -0.404901 0.021767 0.000000 0.000000 0.000000 -7.164463 -5.237345 2.251397 2.117704 16.963827 10.199526 8.011192 -0.548168 1.476673 -23.578170 5.746760 6.557908 0.000000 0.000000 0.000000 0.000000 0.000000 0.000000 58.406788 12.504349 -26.124247 46.511708 53.556247 -33.351710 86.494124 -9.427042 -79.911667 -99.262322 -83.630706 -40.594986 0.000000 0.000000 0.000000 0.000000 0.000000 0.000000 0.605009 0.422005 25.678084 -1.666923 -1.142808 0.631864 1.816002 -1.931888 -2.041596 0.000000 0.000000 0.000000 -3.622136 -3.320449 25.164647 2.442599 -1.630730 0.980405 -3.121733 5.259315 18.164416 0.000000 0.000000 0.000000
-71.167632 66.927291 365.862272 1.374311 1.127757 -22.921339 -0.367412 -0.430770 22.922895 0.147418 0.508057 0.026485 4.975322 -0.857727 0.115057 0.000000 0.000000 0.000000 -7.417349 -7.266959 2.409774 0.277272 21.013258 12.832497 8.830712 -0.501408 1.182864 -28.593365 4.653827 4.780767 0.000000 0.000000 0.000000 0.000000 0.000000 0.000000 53.543182 19.428615 -25.479789 29.295164 53.554998 -20.075535 89.536826 10.616920 -76.628358 -112.538112 -82.728686 -63.590836 0.000000 0.000000 0.000000 0.000000 0.000000 0.000000 -0.527502 0.749457 22.124188 -1.152804 -2.039238 0.753904 1.354542 -1.233872 -1.451851 0.000000 0.000000 0.000000 -4.932051 -3.886206 21.437359 3.196998 -1.499054 1.188949 -3.968999 5.541022 21.470692 0.000000 0.000000 0.000000
-70.850026 66.947028 366.029637 1.724941 1.167506 -19.706560 -0.527060 -0.362593 19.707378 0.139166 0.433797 0.035114 5.366733 -0.969413 0.151695 0.000000 0.000000 0.000000 -7.172184 -9.054083 2.498207 -3.420878 24.759942 16.375237 9.792204 -0.454491 0.228284 -32.957811 4.275364 4.840685 0.000000 0.000000 0.000000 0.000000 0.000000 0.000000 50.089263 24.854084 -24.935450 11.908634 50.512920 -9.217186 93.087828 20.689719 -74.465378 -140.071145 -78.598011 -91.758068 0.000000 0.000000 0.000000 0.000000 0.000000 0.000000 -1.597401 1.315703 18.768114 -0.617390 -2.954645 0.885730 1.064869 -0.224587 -0.877775 0.000000 0.000000 0.000000 -5.841099 -4.064546 18.059620 3.422463 -1.501908 1.270487 -4.831595 5.747290 24.877358 0.000000 0.000000 0.000000
-70.632413 66.949474 366.114027 1.915034 1.262057 -16.407731 -0.585285 -0.329703 16.407622 0.112438 0.383147 0.039200 5.931277 -1.011759 0.180810 0.000000 0.000000 0.000000 -6.759924 -10.664997 2.575523 -7.814589 28.103377 20.550749 9.382126 0.959272 -1.319973 -36.203631 2.641986 4.373648 0.000000 0.000000 0.000000 0.000000 0.000000 0.000000 45.547913 29.908530 -23.361638 1.466318 43.238991 -2.221683 99.663689 51.992763 -66.698125 -131.956761 -63.831175 -105.361991 0.000000 0.000000 0.000000 0.000000 0.000000 0.000000 -2.161937 1.821819 15.355266 -0.290005 -3.625488 0.999976 0.772301 0.726121 -0.323506 0.000000 0.000000 0.000000 -6.173390 -4.294663 14.745150 3.235589 -1.291780 1.226947 -5.685466 5.859884 28.227493 0.000000 0.000000 0.000000
-70.453319 66.957117 366.111637 1.984584 1.376192 -12.831997 -0.566862 -0.274534 12.831535 0.089752 0.313316 0.042402 6.659460 -1.106947 0.237972 0.000000 0.000000 0.000000 -6.279543 -12.963891 2.765075 -14.739577 31.197475 26.092669 10.835892 2.999434 -2.184004 -36.330421 -0.392089 1.261990 0.000000 0.000000 0.000000 0.000000 0.000000 0.000000 41.248824 32.914267 -21.312966 -5.999392 36.338083 0.876046 82.441773 1.106804 -83.313331 64.933319 -76.457444 139.993103 0.000000 0.000000 0.000000 0.000000 0.000000 0.000000 -2.424536 2.157483 11.728882 -0.022836 -4.018523 1.055729 0.450464 1.924908 0.338227 0.000000 0.000000 0.000000 -6.125908 -4.570489 11.264164 2.643725 -0.989837 1.083249 -6.370651 5.925034 31.350005 0.000000 0.000000 0.000000
-70.440342 66.975938 365.995123 1.795252 1.518319 -9.547943 -0.452439 -0.253032 9.547016 0.055587 0.240095 0.038446 7.950624 -1.000571 0.271526 0.000000 0.000000 0.000000 -5.675821 -15.256191 3.010865 -22.021974 33.299482 31.865872 11.148561 5.320922 -4.341967 -33.401573 -4.950119 -0.926637 0.000000 0.000000 0.000000 0.000000 0.000000 0.000000 37.498521 35.669174 -19.314054 -9.487961 28.982505 1.961126 86.063454 20.518881 -73.542324 150.313532 -76.319337 -148.721487 0.000000 0.000000 0.000000 0.000000 0.000000 0.000000 -2.067308 2.167879 8.446971 0.755742 -3.515418 1.055952 -0.898682 2.023797 0.996754 0.000000 0.000000 0.000000 -5.311177 -4.832427 8.265229 1.417792 -0.814803 0.805470 -6.759327 6.080365 33.849134 0.000000 0.000000 0.000000
-70.356810 67.036141 365.821568 1.716470 1.640493 -6.086149 -0.491994 -0.243690 6.080498 0.032904 0.215377 0.032449 9.467264 -0.913316 0.316987 0.000000 0.000000 0.000000 -5.081198 -17.042697 3.203605 -29.029024 33.637819 36.787914 10.509921 9.808832 -5.899005 -30.011408 -10.342026 -2.754762 0.000000 0.000000 0.000000 0.000000 0.000000 0.000000 32.862847 38.109550 -16.556339 -10.916599 22.885605 1.958099 85.602978 27.048313 -69.195501 166.281111 -69.149305 -135.328958 0.000000 0.000000 0.000000 0.000000 0.000000 0.000000 -1.808468 1.909218 5.050158 0.999505 -2.993860 0.963737 -1.674687 2.159215 1.548257 0.000000 0.000000 0.000000 -4.969856 -5.172337 4.982965 0.382407 -0.864456 0.617427 -7.101787 6.346853 36.537277 0.000000 0.000000 0.000000
-70.330585 67.101412 365.613570 1.503701 1.761963 -2.431299 -0.500046 -0.287299 2.421562 -0.037623 0.151219 0.020108 11.501765 -0.984116 0.464274 0.000000 0.000000 0.000000 -4.506749 -18.281638 3.385441 -36.042680 32.575121 41.229287 10.641924 14.001181 -7.093579 -24.659697 -17.062351 -6.026949 0.000000 0.000000 0.000000 0.000000 0.000000 0.000000 28.330773 39.341353 -13.574148 -11.758007 18.197483 1.547263 84.853803 31.517628 -65.446074 -177.021001 -67.651779 -120.459980 0.000000 0.000000 0.000000 0.000000 0.000000 0.000000 -1.510578 1.744715 1.450397 1.279280 -2.614684 0.892141 -2.300008 2.335653 1.999209 0.000000 0.000000 0.000000 -4.281396 -5.508871 1.607967 -0.941029 -0.956165 0.371720 -7.390536 6.575558 39.056604 0.000000 0.000000 0.000000
-70.306716 67.158601 365.406121 1.263183 1.860625 0.790199 -0.526115 -0.376625 -0.803870 -0.136982 0.083217 0.004314 13.726044 -1.181148 0.681567 0.000000 0.000000 0.000000 -4.143595 -18.886317 3.528323 -40.655760 30.639625 43.017471 8.100765 20.023042 -8.342662 -14.323319 -26.051267 -7.074455 0.000000 0.000000 0.000000 0.000000 0.000000 0.000000 25.950178 39.375828 -11.829901 -13.195691 15.827431 1.113382 80.623116 33.434548 -59.648406 -165.895219 -71.617564 -111.543631 0.000000 0.000000 0.000000 0.000000 0.000000 0.000000 -1.346182 1.594371 -1.695730 1.628774 -2.282042 0.802832 -2.587414 2.336968 2.164983 0.000000 0.000000 0.000000 -3.513628 -5.687221 -1.322045 -2.267432 -1.343265 0.138650 -7.627196 6.827330 41.242881 0.000000 0.000000 0.000000
-70.345544 67.206112 365.206384 0.954343 1.919030 3.586171 -0.536508 -0.478874 -3.602937 -0.229375 0.016616 -0.012534 15.842586 -1.464451 0.936528 0.000000 0.000000 0.000000 -4.133666 -20.278707 3.854438 -44.153023 30.002452 45.127784 5.216923 25.514351 -9.116033 -5.206108 -33.212183 -6.371808 0.000000 0.000000 0.000000 0.000000 0.000000 0.000000 21.670545 38.723294 -8.837989 -12.530298 14.090827 0.838487 78.599038 33.724456 -57.887570 -164.772789 -76.506976 -111.884743 0.000000 0.000000 0.000000 0.000000 0.000000 0.000000 -1.138579 1.497399 -4.423652 1.939963 -2.037338 0.729376 -2.743790 2.402649 2.260273 0.000000 0.000000 0.000000 -2.602350 -5.729183 -3.815890 -3.503806 -1.859699 -0.085704 -7.878939 7.020124 43.057459 0.000000 0.000000 0.000000
-70.493097 67.214428 365.040984 0.528229 1.895524 6.080461 -0.520032 -0.595267 -6.099583 -0.316048 -0.048956 -0.031506 17.999933 -1.448395 1.086182 0.000000 0.000000 0.000000 -4.238261 -21.546924 4.199906 -46.067711 29.747507 46.184380 1.550707 30.036002 -10.956667 3.214418 -38.808458 -5.486399 0.000000 0.000000 0.000000 0.000000 0.000000 0.000000 17.946633 36.436308 -6.213434 -12.043808 15.094054 0.939087 76.420853 34.036113 -54.980264 -168.202291 -79.412097 -116.863262 0.000000 0.000000 0.000000 0.000000 0.000000 0.000000 -0.733483 1.645763 -6.912485 2.138122 -2.072449 0.738102 -2.748955 2.539015 2.268466 0.000000 0.000000 0.000000 -1.304243 -5.603900 -5.938141 -4.925613 -2.546040 -0.365633 -7.936837 7.274308 44.151339 0.000000 0.000000 0.000000
